<?xml version="1.0" encoding="UTF-8" standalone="no"?><!-- Generator: Gravit.io --><svg xmlns="http://www.w3.org/2000/svg" xmlns:xlink="http://www.w3.org/1999/xlink" style="isolation:isolate" viewBox="0 0 400 240" width="400pt" height="240pt"><defs><clipPath id="_clipPath_0R8c9o9yF4z5BS2l5AsDsW9SsUlhMTsV"><rect width="400" height="240"/></clipPath></defs><g clip-path="url(#_clipPath_0R8c9o9yF4z5BS2l5AsDsW9SsUlhMTsV)"><clipPath id="_clipPath_uUH4teFnFMa89NB2uP0n5m6g6JrmqaJV"><rect x="0" y="0" width="400" height="240" transform="matrix(1,0,0,1,0,0)" fill="rgb(255,255,255)"/></clipPath><g clip-path="url(#_clipPath_uUH4teFnFMa89NB2uP0n5m6g6JrmqaJV)"><g><path d=" M 35.312 166.316 L 35.312 166.316 Q 34.416 166.316 33.84 165.548 L 33.84 165.548 L 33.84 165.548 Q 33.264 164.78 33.264 163.628 L 33.264 163.628 L 33.264 161.58 L 33.264 158.508 L 33.264 158.508 Q 33.264 150.444 32.624 140.332 L 32.624 140.332 L 32.624 140.332 Q 32.112 129.58 32.112 122.156 L 32.112 122.156 L 32.112 122.156 Q 32.112 115.244 31.472 95.404 L 31.472 95.404 L 31.472 95.404 Q 30.704 77.484 30.704 68.652 L 30.704 68.652 L 30.704 68.652 Q 30.704 68.012 31.28 67.564 L 31.28 67.564 L 31.28 67.564 Q 31.856 67.116 32.624 67.116 L 32.624 67.116 L 32.624 67.116 Q 34.928 67.116 34.928 69.036 L 34.928 69.036 L 34.928 69.036 Q 34.928 92.716 35.312 104.492 L 35.312 104.492 L 35.952 127.404 L 35.952 127.404 Q 35.952 132.78 36.72 144.94 L 36.72 144.94 L 37.488 160.812 L 37.488 160.812 Q 37.488 161.196 37.872 161.196 L 37.872 161.196 L 37.872 161.196 Q 38 161.324 39.536 161.324 L 39.536 161.324 L 47.472 161.324 L 47.472 161.324 Q 49.136 161.324 49.136 163.628 L 49.136 163.628 L 49.136 163.628 Q 49.136 164.652 48.752 165.356 L 48.752 165.356 L 48.752 165.356 Q 48.368 166.06 47.6 166.06 L 47.6 166.06 L 46.704 166.188 L 45.68 166.188 L 45.68 166.188 Q 42.992 166.316 35.312 166.316 L 35.312 166.316 L 35.312 166.316 L 35.312 166.316 Z  M 76.144 167.98 L 76.144 167.98 Q 61.168 167.98 61.168 120.876 L 61.168 120.876 L 61.168 116.396 L 61.168 116.396 Q 61.168 80.684 70.384 80.684 L 70.384 80.684 L 70.384 80.684 Q 71.024 80.684 72.176 81.068 L 72.176 81.068 L 72.176 81.068 Q 76.272 82.476 80.24 82.86 L 80.24 82.86 L 80.24 82.86 Q 82.672 83.372 85.104 87.852 L 85.104 87.852 L 85.104 87.852 Q 87.792 92.46 89.136 100.012 L 89.136 100.012 L 89.136 100.012 Q 90.48 107.564 90.48 115.5 L 90.48 115.5 L 90.224 116.14 L 90.224 116.14 Q 90.224 120.364 90.352 123.692 L 90.352 123.692 L 90.48 131.372 L 90.48 131.372 Q 90.48 137.9 89.968 143.148 L 89.968 143.148 L 89.968 143.148 Q 89.2 151.084 87.408 156.844 L 87.408 156.844 L 87.408 156.844 Q 86.256 160.3 84.784 162.604 L 84.784 162.604 L 84.784 162.604 Q 83.312 164.908 81.136 166.444 L 81.136 166.444 L 81.136 166.444 Q 79.088 167.98 76.144 167.98 L 76.144 167.98 L 76.144 167.98 L 76.144 167.98 Z  M 75.632 164.268 L 75.632 164.268 Q 80.624 164.268 83.056 157.228 L 83.056 157.228 L 83.056 157.228 Q 85.488 150.06 86 142.636 L 86 142.636 L 86 142.636 Q 86.512 134.956 86.512 130.348 L 86.512 130.348 L 86.512 130.348 Q 86.512 125.228 85.744 115.244 L 85.744 115.244 L 85.744 115.244 Q 85.104 104.108 85.104 100.14 L 85.104 100.14 L 84.592 99.116 L 84.848 98.476 L 84.848 98.476 Q 84.848 92.844 81.712 88.748 L 81.712 88.748 L 81.712 88.748 Q 78.576 84.652 74.096 84.652 L 74.096 84.652 L 74.096 84.652 Q 68.208 84.652 67.056 90.284 L 67.056 90.284 L 67.056 90.284 Q 66.8 92.204 66.544 95.788 L 66.544 95.788 L 66.544 95.788 Q 66.544 105.26 65.776 108.716 L 65.776 108.716 L 65.776 108.716 Q 65.776 110.636 65.392 114.732 L 65.392 114.732 L 65.136 120.748 L 65.136 120.748 Q 65.136 123.564 65.264 125.74 L 65.264 125.74 L 65.392 130.86 L 65.392 130.86 Q 65.392 136.876 66.416 144.684 L 66.416 144.684 L 66.416 144.684 Q 67.184 150.444 68.208 154.412 L 68.208 154.412 L 68.208 154.412 Q 69.232 158.38 71.152 161.196 L 71.152 161.196 L 71.152 161.196 Q 73.072 164.268 75.632 164.268 L 75.632 164.268 L 75.632 164.268 L 75.632 164.268 Z  M 132.336 166.7 L 132.336 166.7 Q 130.416 166.7 129.904 166.252 L 129.904 166.252 L 129.904 166.252 Q 129.392 165.804 129.136 163.884 L 129.136 163.884 L 129.136 163.884 Q 127.984 154.54 127.728 152.236 L 127.728 152.236 L 127.088 147.116 L 127.088 147.116 Q 124.272 146.476 120.688 146.476 L 120.688 146.476 L 116.08 146.22 L 116.08 146.22 Q 113.008 145.836 111.6 145.836 L 111.6 145.836 L 111.6 145.836 Q 110.832 145.836 110.704 146.476 L 110.704 146.476 L 110.704 146.476 Q 110.704 146.86 110.576 146.86 L 110.576 146.86 L 110.32 149.42 L 110.32 149.42 Q 110.192 151.724 108.912 158.636 L 108.912 158.636 L 108.912 158.636 Q 108.272 162.092 107.376 164.012 L 107.376 164.012 L 107.376 164.012 Q 106.352 166.188 105.456 166.188 L 105.456 166.188 L 105.456 166.188 Q 104.688 166.188 103.792 165.484 L 103.792 165.484 L 103.792 165.484 Q 102.896 164.78 102.896 164.012 L 102.896 164.012 L 103.024 163.628 L 103.152 163.244 L 103.152 163.244 Q 105.456 154.156 106.992 145.196 L 106.992 145.196 L 108.528 137.26 L 110.064 127.532 L 110.064 127.532 Q 110.064 127.532 111.472 119.084 L 111.472 119.084 L 111.472 119.084 Q 112.112 115.628 113.776 107.948 L 113.776 107.948 L 113.776 107.948 Q 115.568 99.244 115.952 96.044 L 115.952 96.044 L 115.952 96.044 Q 116.08 95.66 116.464 91.308 L 116.464 91.308 L 116.464 91.308 Q 116.976 86.444 117.36 84.14 L 117.36 84.14 L 117.36 84.14 Q 117.744 80.812 118.128 80.3 L 118.128 80.3 L 119.024 80.3 L 119.024 80.3 Q 119.408 80.428 119.92 80.428 L 119.92 80.428 L 119.92 80.428 Q 121.456 80.428 122.224 79.66 L 122.224 79.66 L 122.224 79.66 Q 123.12 79.66 123.824 80.236 L 123.824 80.236 L 123.824 80.236 Q 124.528 80.812 124.528 81.58 L 124.528 81.58 L 124.528 81.58 Q 124.528 87.724 125.424 95.66 L 125.424 95.66 L 125.424 95.66 Q 125.936 99.756 126.192 102.444 L 126.192 102.444 L 126.192 102.444 Q 127.6 118.956 133.36 164.396 L 133.36 164.396 L 133.36 164.78 L 133.36 164.78 Q 133.36 166.06 132.336 166.7 L 132.336 166.7 L 132.336 166.7 L 132.336 166.7 Z  M 125.168 143.66 L 126.448 143.66 L 126.448 143.66 Q 125.168 125.228 121.584 89.26 L 121.584 89.26 L 114.672 123.436 L 114.672 123.436 Q 111.728 138.156 111.728 141.996 L 111.728 141.996 L 111.728 141.996 Q 111.728 142.636 116.592 143.148 L 116.592 143.148 L 116.592 143.148 Q 121.456 143.66 125.168 143.66 L 125.168 143.66 L 125.168 143.66 L 125.168 143.66 Z  M 149.616 166.188 L 149.616 166.188 Q 148.592 166.188 148.592 162.732 L 148.592 162.732 L 148.592 162.732 Q 148.08 153.9 148.08 140.46 L 148.08 140.46 L 148.08 140.46 Q 148.08 132.012 148.208 125.356 L 148.208 125.356 L 148.336 110.252 L 148.336 110.252 Q 148.336 100.524 147.824 86.188 L 147.824 86.188 L 147.824 86.188 Q 146.672 85.164 146.672 83.628 L 146.672 83.628 L 146.672 83.628 Q 146.672 82.732 147.76 81.772 L 147.76 81.772 L 147.76 81.772 Q 148.848 80.812 149.744 80.812 L 149.744 80.812 L 149.744 80.812 Q 150.768 80.812 151.664 81.836 L 151.664 81.836 L 153.072 82.988 L 153.072 82.988 Q 153.84 83.372 156.016 83.756 L 156.016 83.756 L 156.016 83.756 Q 158.192 84.14 159.088 84.524 L 159.088 84.524 L 159.088 84.524 Q 161.008 85.548 164.208 88.492 L 164.208 88.492 L 164.208 88.492 Q 167.28 91.564 168.432 92.332 L 168.432 92.332 L 168.304 92.588 L 168.304 92.588 Q 168.432 93.356 170.224 95.916 L 170.224 95.916 L 170.224 95.916 Q 171.632 97.836 172.528 99.5 L 172.528 99.5 L 172.528 99.5 Q 174.576 105.388 174.576 114.732 L 174.576 114.732 L 174.576 114.732 Q 174.576 116.396 174.448 117.676 L 174.448 117.676 L 174.448 120.748 L 174.448 121.772 L 174.32 123.052 L 174.32 123.052 Q 174.32 125.484 175.088 126.892 L 175.088 126.892 L 175.088 126.892 Q 174.32 130.988 173.168 142.38 L 173.168 142.38 L 173.168 142.38 Q 172.784 145.708 171.888 149.42 L 171.888 149.42 L 171.888 149.42 Q 170.992 153.132 169.712 155.564 L 169.712 155.564 L 169.712 155.564 Q 166.384 161.836 158.576 166.188 L 158.576 166.188 L 149.616 166.188 L 149.616 166.188 L 149.616 166.188 Z  M 154.096 162.476 L 158.064 162.476 L 158.064 162.476 Q 158.96 161.452 159.728 160.812 L 159.728 160.812 L 159.728 160.812 Q 159.728 160.812 160.624 160.172 L 160.624 160.172 L 161.648 159.276 L 161.648 159.276 Q 170.608 151.212 170.608 128.556 L 170.608 128.556 L 170.608 126.124 L 170.608 126.124 Q 170.48 125.1 170.48 123.948 L 170.48 123.948 L 169.968 111.02 L 169.968 111.02 Q 169.584 103.596 165.488 95.66 L 165.488 95.66 L 165.488 95.66 Q 163.568 91.692 160.304 89.196 L 160.304 89.196 L 160.304 89.196 Q 157.04 86.7 153.456 86.7 L 153.456 86.7 L 153.456 86.7 Q 151.92 86.7 151.92 110.38 L 151.92 110.38 L 151.92 110.38 Q 151.92 137.772 153.456 158.124 L 153.456 158.124 L 153.328 160.556 L 153.84 160.812 L 154.096 162.476 L 154.096 162.476 L 154.096 162.476 Z  M 198.64 165.548 L 198.64 165.548 Q 195.696 165.548 195.184 164.268 L 195.184 164.268 L 195.184 164.268 Q 194.544 164.268 194.16 164.396 L 194.16 164.396 L 193.136 164.396 L 193.136 164.396 Q 190.32 164.396 189.552 163.116 L 189.552 163.116 L 189.552 163.116 Q 189.552 162.22 190.576 161.58 L 190.576 161.58 L 191.216 160.94 L 194.928 160.94 L 195.44 160.428 L 195.696 159.276 L 195.824 157.74 L 195.824 157.74 Q 195.824 149.932 195.44 143.788 L 195.44 143.788 L 195.184 139.052 L 194.928 129.708 L 194.928 129.708 Q 194.928 124.716 195.312 114.732 L 195.312 114.732 L 195.568 99.884 L 195.568 99.884 Q 195.568 90.156 194.928 85.036 L 194.928 85.036 L 194.928 85.036 Q 193.776 84.652 191.088 84.652 L 191.088 84.652 L 189.68 84.78 L 189.68 84.78 Q 188.912 84.908 188.016 84.908 L 188.016 84.908 L 188.016 84.908 Q 185.584 84.908 185.584 82.732 L 185.584 82.732 L 185.584 82.732 Q 185.584 82.22 186.736 81.708 L 186.736 81.708 L 186.736 81.708 Q 187.888 81.196 188.656 81.196 L 188.656 81.196 L 188.656 81.196 Q 193.52 81.196 198.384 81.708 L 198.384 81.708 L 198.384 81.708 Q 201.328 81.836 204.272 82.86 L 204.272 82.86 L 204.272 82.86 Q 206.576 83.628 206.576 85.036 L 206.576 85.036 L 206.576 85.036 Q 206.576 85.292 206.192 86.06 L 206.192 86.06 L 203.248 86.316 L 203.248 86.316 Q 202.352 85.548 199.536 85.548 L 199.536 85.548 L 198.896 85.932 L 198.896 85.932 Q 199.28 87.084 199.28 92.716 L 199.28 92.716 L 199.28 92.716 Q 199.28 101.164 199.152 107.948 L 199.152 107.948 L 198.896 123.18 L 198.896 123.18 Q 198.896 128.94 199.408 137.132 L 199.408 137.132 L 199.408 137.132 Q 199.792 146.476 199.792 151.212 L 199.792 151.212 L 199.792 152.876 L 199.792 152.876 Q 199.664 153.772 199.664 155.18 L 199.664 155.18 L 199.664 155.18 Q 199.664 158.124 200.048 158.764 L 200.048 158.764 L 199.92 159.02 L 199.92 159.02 Q 199.92 160.3 202.736 160.3 L 202.736 160.3 L 202.736 160.3 Q 203.888 160.3 204.656 160.172 L 204.656 160.172 L 206.576 160.172 L 206.576 160.172 Q 210.288 160.172 210.288 161.964 L 210.288 161.964 L 210.288 161.964 Q 210.288 163.116 209.52 163.82 L 209.52 163.82 L 209.52 163.82 Q 208.752 164.524 207.472 164.524 L 207.472 164.524 L 207.472 164.524 Q 206.32 164.524 205.424 164.268 L 205.424 164.268 L 205.424 164.268 Q 204.4 164.14 203.248 164.14 L 203.248 164.14 L 203.248 164.14 Q 202.48 164.14 200.944 164.78 L 200.944 164.78 L 200.944 164.78 Q 199.408 165.548 198.64 165.548 L 198.64 165.548 L 198.64 165.548 L 198.64 165.548 Z  M 254.704 166.06 L 254.704 166.06 Q 253.68 166.06 253.232 165.292 L 253.232 165.292 L 253.232 165.292 Q 252.784 164.524 252.4 162.988 L 252.4 162.988 L 252.4 162.988 Q 252.272 161.964 251.888 161.196 L 251.888 161.196 L 252.016 160.812 L 252.016 160.812 Q 250.992 154.796 247.664 146.092 L 247.664 146.092 L 245.36 139.436 L 245.36 139.436 Q 245.104 139.18 242.928 132.908 L 242.928 132.908 L 241.904 129.836 L 241.904 129.836 Q 230.384 94.252 227.44 91.308 L 227.44 91.308 L 227.44 91.308 Q 226.416 94.764 226.416 100.268 L 226.416 100.268 L 226.416 100.268 Q 226.416 103.212 226.544 105.388 L 226.544 105.388 L 226.672 110.38 L 226.544 113.452 L 226.544 113.452 Q 226.416 114.86 226.416 116.524 L 226.416 116.524 L 226.416 116.524 Q 226.416 119.34 226.672 121.388 L 226.672 121.388 L 226.672 121.388 Q 226.928 125.484 226.928 125.484 L 226.928 125.484 L 226.544 125.484 L 226.544 125.484 Q 226.544 146.86 227.44 149.036 L 227.44 149.036 L 227.44 160.556 L 227.44 160.556 Q 227.952 161.58 227.952 163.244 L 227.952 163.244 L 227.952 163.244 Q 227.952 164.268 227.248 165.036 L 227.248 165.036 L 227.248 165.036 Q 226.544 165.804 225.52 165.804 L 225.52 165.804 L 225.52 165.804 Q 222.832 165.804 222.832 158.892 L 222.832 158.892 L 223.088 154.796 L 223.088 154.796 Q 223.344 152.876 223.344 150.572 L 223.344 150.572 L 223.344 150.572 Q 223.344 144.428 222.96 132.14 L 222.96 132.14 L 222.96 132.14 Q 222.576 119.852 222.576 113.708 L 222.576 113.708 L 222.576 113.708 Q 222.576 109.996 222.96 102.316 L 222.96 102.316 L 222.96 102.316 Q 223.344 94.764 223.344 91.052 L 223.344 91.052 L 223.344 89.388 L 223.344 89.388 Q 223.344 83.116 225.648 81.196 L 225.648 81.196 L 226.032 81.58 L 227.312 81.324 L 227.312 81.324 Q 227.824 81.452 228.464 82.092 L 228.464 82.092 L 228.464 82.092 Q 228.976 82.604 228.976 83.244 L 228.976 83.244 L 229.232 84.012 L 229.232 84.012 Q 229.232 84.268 229.296 84.46 L 229.296 84.46 L 229.296 84.46 Q 229.36 84.652 229.36 84.652 L 229.36 84.652 L 229.36 84.652 Q 231.408 93.74 238.576 110.124 L 238.576 110.124 L 238.576 110.124 Q 245.872 127.404 247.664 133.036 L 247.664 133.036 L 247.664 133.036 Q 248.944 137.516 249.712 140.972 L 249.712 140.972 L 249.712 140.972 Q 252.144 151.852 255.472 157.74 L 255.472 157.74 L 255.728 157.356 L 255.728 157.356 Q 258.672 128.94 258.672 87.596 L 258.672 87.596 L 258.544 86.06 L 258.544 86.06 Q 258.416 85.42 258.416 84.396 L 258.416 84.396 L 258.416 84.396 Q 258.416 81.708 260.208 81.708 L 260.208 81.708 L 260.208 81.708 Q 261.36 81.708 262.192 82.86 L 262.192 82.86 L 262.192 82.86 Q 263.024 84.012 263.024 85.42 L 263.024 85.42 L 263.024 93.996 L 262.384 95.02 L 262.384 95.02 Q 262.384 107.18 260.976 134.956 L 260.976 134.956 L 260.976 134.956 Q 259.568 162.732 258.288 165.164 L 258.288 165.164 L 256.112 165.676 L 256.112 165.804 L 255.984 165.676 L 254.704 166.06 L 254.704 166.06 L 254.704 166.06 Z  M 296.048 166.444 L 296.048 166.444 Q 290.16 166.444 287.344 165.036 L 287.344 165.036 L 287.344 165.036 Q 284.528 163.628 283.184 159.596 L 283.184 159.596 L 283.184 159.596 Q 281.84 155.564 280.816 146.732 L 280.816 146.732 L 280.816 146.732 Q 279.28 133.804 279.28 126.636 L 279.28 126.636 L 279.28 126.636 Q 279.28 122.284 279.792 116.652 L 279.792 116.652 L 280.56 108.588 L 280.56 108.588 Q 281.2 98.988 282.032 94.06 L 282.032 94.06 L 282.032 94.06 Q 282.864 89.132 285.744 85.356 L 285.744 85.356 L 285.744 85.356 Q 288.624 81.58 294.64 80.94 L 294.64 80.94 L 294.64 80.94 Q 295.28 80.812 296.688 80.812 L 296.688 80.812 L 296.688 80.812 Q 300.656 80.812 300.656 82.604 L 300.656 82.604 L 300.656 82.604 Q 300.656 83.372 299.824 83.948 L 299.824 83.948 L 299.824 83.948 Q 298.992 84.524 298.096 84.524 L 298.096 84.524 L 296.816 84.396 L 295.664 84.268 L 295.664 84.268 Q 293.488 84.268 291.76 85.676 L 291.76 85.676 L 291.76 85.676 Q 290.032 87.084 288.88 89.772 L 288.88 89.772 L 288.88 89.772 Q 286.192 96.172 285.424 102.316 L 285.424 102.316 L 285.424 102.316 Q 284.4 110.38 284.144 116.396 L 284.144 116.396 L 284.016 126.252 L 284.016 126.252 Q 284.016 132.524 284.4 135.596 L 284.4 135.596 L 284.4 135.596 Q 285.296 137.004 285.616 139.884 L 285.616 139.884 L 285.616 139.884 Q 285.936 142.764 286.192 147.756 L 286.192 147.756 L 286.192 147.756 Q 286.448 152.236 287.344 155.372 L 287.344 155.372 L 287.344 155.372 Q 288.24 158.508 290.544 160.556 L 290.544 160.556 L 290.544 160.556 Q 293.104 162.732 297.584 162.732 L 297.584 162.732 L 297.584 162.732 Q 301.296 162.732 302.832 158.636 L 302.832 158.636 L 302.832 158.636 Q 304.624 154.284 304.88 149.676 L 304.88 149.676 L 304.88 149.676 Q 305.264 143.916 305.264 139.948 L 305.264 139.948 L 305.264 132.908 L 305.264 132.908 Q 303.984 131.628 300.784 131.628 L 300.784 131.628 L 299.76 131.628 L 299.76 131.628 Q 299.12 131.756 298.352 131.756 L 298.352 131.756 L 298.352 131.756 Q 295.28 131.756 295.28 130.22 L 295.28 130.22 L 295.28 130.22 Q 295.28 128.044 298.352 128.044 L 298.352 128.044 L 298.352 128.044 Q 300.528 128.044 301.936 128.172 L 301.936 128.172 L 304.752 128.3 L 304.752 128.3 Q 307.184 128.684 308.592 129.196 L 308.592 129.196 L 308.592 129.196 Q 310.128 129.708 310.128 130.604 L 310.128 130.604 L 310.128 130.604 Q 310.128 132.268 309.36 135.34 L 309.36 135.34 L 309.36 135.34 Q 308.72 138.924 308.72 140.204 L 308.72 140.204 L 308.72 140.204 Q 308.72 145.58 308.976 149.932 L 308.976 149.932 L 308.976 149.932 Q 309.104 154.412 309.104 159.788 L 309.104 159.788 L 309.104 159.788 Q 302.576 166.444 296.048 166.444 L 296.048 166.444 L 296.048 166.444 L 296.048 166.444 Z  M 324.208 166.06 L 324.208 166.06 Q 323.056 166.06 322.224 165.1 L 322.224 165.1 L 322.224 165.1 Q 321.392 164.14 321.392 162.988 L 321.392 162.988 L 321.392 162.988 Q 321.392 161.708 322.416 160.62 L 322.416 160.62 L 322.416 160.62 Q 323.44 159.532 324.72 159.532 L 324.72 159.532 L 324.72 159.532 Q 325.744 159.532 326.768 160.62 L 326.768 160.62 L 326.768 160.62 Q 327.792 161.708 327.792 162.86 L 327.792 162.86 L 327.792 162.86 Q 327.792 166.06 324.208 166.06 L 324.208 166.06 L 324.208 166.06 L 324.208 166.06 Z  M 343.024 166.06 L 343.024 166.06 Q 341.872 166.06 341.04 165.1 L 341.04 165.1 L 341.04 165.1 Q 340.208 164.14 340.208 162.988 L 340.208 162.988 L 340.208 162.988 Q 340.208 161.708 341.232 160.62 L 341.232 160.62 L 341.232 160.62 Q 342.256 159.532 343.536 159.532 L 343.536 159.532 L 343.536 159.532 Q 344.56 159.532 345.584 160.62 L 345.584 160.62 L 345.584 160.62 Q 346.608 161.708 346.608 162.86 L 346.608 162.86 L 346.608 162.86 Q 346.608 166.06 343.024 166.06 L 343.024 166.06 L 343.024 166.06 L 343.024 166.06 Z  M 361.84 166.06 L 361.84 166.06 Q 360.688 166.06 359.856 165.1 L 359.856 165.1 L 359.856 165.1 Q 359.024 164.14 359.024 162.988 L 359.024 162.988 L 359.024 162.988 Q 359.024 161.708 360.048 160.62 L 360.048 160.62 L 360.048 160.62 Q 361.072 159.532 362.352 159.532 L 362.352 159.532 L 362.352 159.532 Q 363.376 159.532 364.4 160.62 L 364.4 160.62 L 364.4 160.62 Q 365.424 161.708 365.424 162.86 L 365.424 162.86 L 365.424 162.86 Q 365.424 166.06 361.84 166.06 L 361.84 166.06 L 361.84 166.06 L 361.84 166.06 Z " fill="rgb(210,104,26)"/></g></g></g></svg>